# xmcd
#
# Track frame offsets:
# 150
# 13085
# 20602
# 33075
# 46590
# 60647
# 79357
# 94060
# 103697
# 120555
# 129817
# 141512
# 152885
# 164220
#
# Disc length: 2382 seconds
#
#
# Revision: 0
# Processed by: cddbd v1.5.1PL2 Copyright (c) Steve Scherf et al.
# Submitted via: FreeRIP 2.944 
#
DISCID=b6094c0e
DTITLE=Garcia e Zé Matão - Sertanejo Bis
DYEAR=1900
DGENRE=Sertanejo
TTITLE0=Toque este disco até furar
TTITLE1=Não põe a mão na boneca
TTITLE2=Rico e pobre de amor
TTITLE3=Gato e sapato
TTITLE4=Homem apaixonado
TTITLE5=Filho de Rio Preto
TTITLE6=Fontes dos amores
TTITLE7=Adeus moreninha
TTITLE8=Reis do canoeiros
TTITLE9=Mulher da minha vida
TTITLE10=Cidade de Mato Grosso
TTITLE11=Meu triste casamento
TTITLE12=O direito de errar
TTITLE13=Rival de playboy
EXTD=
EXTT0=
EXTT1=
EXTT2=
EXTT3=
EXTT4=
EXTT5=
EXTT6=
EXTT7=
EXTT8=
EXTT9=
EXTT10=
EXTT11=
EXTT12=
EXTT13=
PLAYORDER=
